<?xml version="1.0" encoding="UTF-8" standalone="no"?>
<!-- Generator: Adobe Illustrator 24.1.2, SVG Export Plug-In . SVG Version: 6.00 Build 0)  -->

<svg
   version="1.1"
   id="alien_x5F_spaceship"
   x="0px"
   y="0px"
   viewBox="0 0 675 620"
   xml:space="preserve"
   sodipodi:docname="alien_spaceship.svg"
   width="675"
   height="620"
   inkscape:version="1.1.1 (3bf5ae0d25, 2021-09-20)"
   xmlns:inkscape="http://www.inkscape.org/namespaces/inkscape"
   xmlns:sodipodi="http://sodipodi.sourceforge.net/DTD/sodipodi-0.dtd"
   xmlns="http://www.w3.org/2000/svg"
   xmlns:svg="http://www.w3.org/2000/svg"><defs
   id="defs71" /><sodipodi:namedview
   id="namedview69"
   pagecolor="#ffffff"
   bordercolor="#666666"
   borderopacity="1.0"
   inkscape:pageshadow="2"
   inkscape:pageopacity="0.0"
   inkscape:pagecheckerboard="0"
   showgrid="false"
   inkscape:zoom="1.1180556"
   inkscape:cx="349.16449"
   inkscape:cy="319.54799"
   inkscape:window-width="1920"
   inkscape:window-height="1017"
   inkscape:window-x="1912"
   inkscape:window-y="-8"
   inkscape:window-maximized="1"
   inkscape:current-layer="alien_x5F_spaceship" />
<style
   type="text/css"
   id="style2">
	.st0{fill:#90CAE9;}
	.st1{fill:#EC8822;}
	.st2{fill:#EAE4CF;}
	.st3{fill:#B1B1B1;}
	.st4{fill:#F4D61C;}
	.st5{fill:#DDD175;}
	.st6{fill:#A79E65;}
	.st7{fill:#9FC877;}
	.st8{fill:#BABABB;}
	.st9{fill:#929FA5;}
	.st10{fill:#32393A;}
	.st11{fill:#DDEDF8;}
	.st12{fill:#F6CA1B;}
</style>
































<g
   id="g2116"><ellipse
     class="st0"
     cx="330.82263"
     cy="285.42368"
     rx="204.44231"
     ry="173.95349"
     id="ellipse4"
     style="stroke-width:1.00046" /><path
     class="st1"
     d="m 174.43728,47.687237 c 2.20261,-3.499064 3.70439,-7.398022 4.3051,-11.696873 2.30273,-16.695537 -9.91175,-31.9914479 -27.43251,-34.2908332 -17.42065,-2.19941205 -33.43964,9.4974612 -35.74236,26.1929982 -2.30273,16.695537 9.91174,31.991448 27.43251,34.290833 7.70913,0.999733 15.11792,-0.699813 21.12504,-4.398824 16.1191,15.595831 41.74948,41.988776 61.1725,78.578992 l 7.80925,-3.79898 C 219.99127,103.07243 200.66837,69.581385 174.43728,47.687237 Z"
     id="path6"
     style="stroke-width:1.00046" /><path
     class="st1"
     d="m 546.67846,54.48542 c -3.2038,-16.595564 -19.8235,-27.492651 -37.04391,-24.493452 -17.22041,2.999198 -28.83417,18.894949 -25.63038,35.490512 0.80095,4.198878 2.50297,8.097836 4.90582,11.496927 -18.62207,17.195403 -33.13928,40.689123 -44.15233,63.982893 3.10368,1.79952 6.20736,3.59904 9.21092,5.59851 15.71863,-26.69287 33.63987,-46.987443 45.85434,-59.983969 6.30748,3.399092 13.71626,4.798717 21.32528,3.399092 17.22041,-3.099172 28.73405,-18.994923 25.53026,-35.490513 z"
     id="path8"
     style="stroke-width:1.00046" /><path
     class="st1"
     d="m 208.57774,547.65359 -30.0356,63.08313 64.47642,-63.08313 c 0.10012,0 -10.81282,-10.29725 -34.44082,0 z"
     id="path10"
     style="stroke-width:1.00046" /><path
     class="st1"
     d="m 437.04852,558.35073 30.0356,63.08313 -64.57654,-63.08313 c 0,0 10.91294,-10.29725 34.54094,0 z"
     id="path12"
     style="stroke-width:1.00046" /><path
     class="st2"
     d="m 214.48474,267.0286 c 0.40048,-0.39989 0.70083,-0.79978 1.10131,-1.0997 -1.50178,0.1 -3.10368,0.19994 -4.60546,0.29992 -0.5006,0.29992 -1.00119,0.59984 -1.40166,0.89976 1.6019,0 3.20379,0 4.90581,-0.1 z"
     id="path14"
     style="stroke-width:1.00046" /><path
     class="st2"
     d="m 295.48074,261.33013 c -6.30748,0.49986 -12.61495,0.99973 -19.02255,1.4996 -0.70083,0.19994 -1.50178,0.49986 -2.20261,0.69981 9.1108,-0.69981 18.2216,-1.29965 27.23228,-1.89949 -1.90226,-0.1 -3.90463,-0.19995 -6.00712,-0.29992 z"
     id="path16"
     style="stroke-width:1.00046" /><path
     class="st2"
     d="m 314.20293,286.62336 c 12.61495,0 25.33002,-0.79978 38.04509,-0.1 18.82231,0.99973 37.74473,1.99947 56.66716,0.69981 10.11198,-0.69981 16.6197,-1.19968 26.8318,-3.99893 1.80214,-0.49986 3.70439,-1.0997 5.50653,-1.69954 -1.90226,-1.09971 -3.90463,-2.09944 -5.907,-3.09917 -28.4337,1.69954 -56.96752,2.19941 -85.50134,3.09917 -23.32765,0.69981 -46.55518,2.09944 -69.88283,3.69901 2.90345,0.19995 5.70677,0.49987 8.61021,0.59984 8.51009,0.59984 17.02017,0.79978 25.63038,0.79978 z"
     id="path18"
     style="stroke-width:1.00046" /><path
     class="st3"
     d="m 471.58946,267.52847 c -1.70202,0.19995 -3.40403,0.39989 -5.10605,0.59984 3.60427,4.29885 3.10368,10.69714 -0.90107,14.5961 -8.91056,8.79765 -21.62563,13.39642 -33.94023,15.89575 -14.31696,2.89922 -29.13453,3.79898 -43.75185,3.89896 -16.31934,0.1 -32.53856,-1.79952 -48.85791,-1.59958 -14.21685,0.19995 -28.53381,0.59984 -42.75066,0.19995 -17.62089,-0.49987 -35.84248,-1.59957 -52.86266,-5.9984 -9.91174,-2.5993 -19.92361,-6.59823 -27.13215,-13.29644 -13.11555,0.59984 -26.23109,0.79978 -39.24652,0.39989 -33.73999,31.7915 -54.36443,73.88025 -54.36443,120.16788 0,98.87357 94.21166,179.05213 210.3493,179.05213 116.13765,0 210.44943,-80.17856 210.44943,-179.05213 0,-53.78562 -27.83299,-101.97274 -71.8852,-134.86395 z"
     id="path20"
     style="stroke-width:1.00046" /><path
     class="st4"
     d="m 679.23556,379.39856 c 0,77.37932 -151.07906,140.06256 -337.5,140.06256 -186.42095,0 -337.5000047,-62.68324 -337.5000047,-140.06256 0,-43.48837 47.7566007,-82.37797 122.7454747,-108.07111 58.36918,-19.99465 133.15782,-31.99144 214.75453,-31.99144 71.48472,0 137.76327,9.19754 192.22783,24.99331 87.80406,25.29324 145.27217,67.38199 145.27217,115.06924 z"
     id="path22"
     style="stroke-width:1.00046" /><path
     class="st5"
     d="m 189.95567,363.20289 c 0,0 -6.20736,28.99225 125.94927,43.08848 132.15664,14.09624 172.80481,-43.08848 172.80481,-43.08848 0,0 -18.12148,-51.38626 -23.628,-53.88559 -5.50653,-2.39936 -242.58752,-17.09543 -249.4957,-13.99626 -6.80807,3.09917 -25.63038,67.88185 -25.63038,67.88185 z"
     id="path24"
     style="stroke-width:1.00046" /><path
     class="st6"
     d="m 535.26493,285.42369 c 0,0.89975 0,1.79951 0,2.79925 0,0.79978 0,1.69954 -0.10012,2.49933 -0.90107,25.59316 -8.30985,49.78669 -20.82468,71.48089 -1.00119,1.79952 -2.10249,3.49907 -3.10368,5.19861 -19.3229,-0.39989 -33.33951,-1.29965 -33.33951,-1.29965 -138.46411,-62.58327 -287.94127,-2.79925 -287.94127,-2.79925 0,0 -11.21329,11.69687 -26.93192,21.59422 -1.20142,-1.4996 -2.40285,-2.89922 -3.50415,-4.39882 -20.32409,-26.49292 -32.33833,-57.88453 -33.03916,-91.67549 0,-1.09971 0,-2.19942 0,-3.29912 0,-0.99973 0,-1.89949 0,-2.89923 0,-0.39989 0,-0.69981 0,-1.0997 0.10012,-3.39909 0.30036,-6.79819 0.50059,-10.0973 0,0 0,0 0.10012,0 58.36918,-19.99466 133.15782,-31.99145 214.65441,-31.99145 71.3846,0 137.56304,9.19754 192.02759,24.89334 0.10012,0 0.10012,0 0.20024,0.1 0.80094,6.09837 1.20142,12.19674 1.30154,18.49505 0,0.79979 0,1.59958 0,2.49934 z"
     id="path26"
     style="stroke-width:1.00046" /><path
     class="st7"
     d="m 420.42882,321.21412 6.70796,-12.99653 c 0,0 -21.4254,-7.0981 -37.04391,2.89923 -0.20024,-8.09784 1.10131,-16.69554 4.60546,-25.89308 23.82824,-62.4833 29.03441,-107.57125 0,-116.36889 -29.03441,-8.79765 -39.94735,26.19299 -54.1642,28.29243 -14.21685,2.09944 -9.01068,-16.19567 -33.73998,-26.49291 -24.72931,-10.29725 -50.05933,24.49345 -28.13335,103.87223 4.00475,14.39615 5.30629,26.79284 4.8057,37.48998 -15.11792,-6.19835 -32.7388,-0.29992 -32.7388,-0.29992 l 6.80807,13.29644 c 11.71388,-2.69928 19.3229,-1.59957 24.02847,1.4996 -8.30985,36.99011 -39.64699,48.08715 -39.64699,48.08715 57.368,38.38973 132.85747,31.09169 170.30184,20.39454 28.13335,-8.09783 -9.31103,-30.69179 -19.52313,-67.88185 3.70439,-5.9984 11.814,-9.59743 27.73286,-5.89842 z"
     id="path28"
     style="stroke-width:1.00046" /><polygon
     class="st8"
     points="527.9,559.4 512.2,655.6 519.7,658 535.6,563.3 "
     id="polygon30"
     transform="matrix(1.0011866,0,0,0.99973275,-106.69592,-265.42906)" /><polygon
     class="st8"
     points="347.8,556.8 375.6,651.5 383.4,650.5 356.5,557 "
     id="polygon32"
     transform="matrix(1.0011866,0,0,0.99973275,-106.69592,-265.42906)" /><ellipse
     class="st9"
     cx="244.42023"
     cy="282.02457"
     id="circle34"
     rx="13.315782"
     ry="13.296446"
     style="stroke-width:1.00046" /><ellipse
     class="st9"
     cx="427.73749"
     cy="289.52255"
     id="circle36"
     rx="13.315782"
     ry="13.296446"
     style="stroke-width:1.00046" /><path
     class="st7"
     d="m 422.23096,315.51564 c 0,0 -9.71151,9.49746 -5.40641,12.99653 4.30511,3.49906 17.72101,1.59957 19.62326,-6.09837 1.90226,-7.69795 -8.91056,-12.99653 -8.91056,-12.99653 0,0 -1.40166,4.19888 -5.30629,6.09837 z"
     id="path38"
     style="stroke-width:1.00046" /><path
     class="st7"
     d="m 252.83019,317.71505 c 0,0 9.51127,8.9976 5.70676,12.69661 -3.80451,3.69901 -16.41946,2.29938 -18.62207,-5.29858 -2.20261,-7.59797 7.60902,-13.19648 7.60902,-13.19648 0,0 1.6019,4.09891 5.30629,5.79845 z"
     id="path40"
     style="stroke-width:1.00046" /><path
     class="st10"
     d="m 302.88952,180.45175 c 0,0 -13.51602,-8.9976 -23.32765,15.39588 -9.81163,24.39348 21.92599,47.68725 37.34426,42.68859 15.51839,-4.99866 10.81282,-46.78749 -14.01661,-58.08447 z"
     id="path42"
     style="stroke-width:1.00046" /><ellipse
     transform="matrix(0.10534616,-0.99443561,0.99446759,0.10504382,0,0)"
     class="st11"
     cx="-184.09254"
     cy="332.42825"
     id="ellipse44"
     rx="7.8984003"
     ry="7.9096317"
     style="stroke-width:1.00051" /><path
     class="st10"
     d="m 380.28124,182.95108 c 0,0 13.51602,-8.9976 23.32765,15.39588 9.81163,24.39348 -21.92599,47.68725 -37.34426,42.68859 -15.51839,-4.89869 -10.81282,-46.78749 14.01661,-58.08447 z"
     id="path46"
     style="stroke-width:1.00046" /><ellipse
     transform="matrix(0.99446649,-0.10505426,0.10535664,0.9944345,0,0)"
     class="st11"
     cx="346.6272"
     cy="258.38043"
     id="ellipse48"
     rx="7.9088454"
     ry="7.897615"
     style="stroke-width:1.00041" /><path
     id="polygon910"
     class="st10"
     style="fill:#32393a;stroke-width:1.00046"
     d="m 324.31491,252.93237 18.0511,8.59072 13.5864,-8.59072 v 6.19834 l -13.5864,8.59073 -20.25371,-8.59073 v -6.19834 z"
     sodipodi:nodetypes="cccccccc" /><path
     class="st12"
     d="M 599.04051,306.3181"
     id="path52"
     style="stroke-width:1.00046" /><path
     class="st4"
     d="m 613.05713,312.61642 c 0,0 -259.00698,160.4571 -542.743259,0 0,0 11.513646,94.27479 22.126224,100.17322 10.612575,5.89842 82.097305,42.38867 86.001925,45.28789 3.90463,2.9992 10.61258,13.79631 31.83774,19.69474 21.22515,5.89842 72.48591,25.59315 104.32364,21.6942 31.83774,-3.89896 36.74355,-7.89789 75.38935,-7.89789 38.64581,0 55.06527,1.99946 83.99956,-13.79631 28.93429,-15.79578 47.35612,-31.49159 64.67665,-45.2879 17.52077,-13.79631 74.38817,-119.86795 74.38817,-119.86795 z"
     id="path54"
     style="stroke-width:1.00046" /><ellipse
     class="st1"
     cx="99.148048"
     cy="379.39856"
     rx="23.327646"
     ry="22.394012"
     id="ellipse56"
     style="stroke-width:1.00046" /><ellipse
     class="st1"
     cx="194.06053"
     cy="434.38385"
     rx="23.327646"
     ry="22.394012"
     id="ellipse58"
     style="stroke-width:1.00046" /><ellipse
     class="st1"
     cx="331.32321"
     cy="449.07996"
     rx="23.327646"
     ry="22.394012"
     id="ellipse60"
     style="stroke-width:1.00046" /><ellipse
     class="st1"
     cx="481.50122"
     cy="434.38385"
     rx="23.327646"
     ry="22.394012"
     id="ellipse62"
     style="stroke-width:1.00046" /><ellipse
     class="st1"
     cx="584.32306"
     cy="379.39856"
     rx="23.327646"
     ry="22.394012"
     id="ellipse64"
     style="stroke-width:1.00046" /><path
     class="st1"
     d="m 303.08976,119.2681 c 0,0 -2.00238,-40.689121 28.83417,-40.689121 30.83655,0 26.43133,40.689121 26.43133,40.689121 0,0 -24.32884,21.89415 -55.2655,0 z"
     id="path66"
     style="stroke-width:1.00046" /><path
     id="polygon910-9"
     class="st10"
     style="fill:#32393a;stroke-width:1.00046"
     d="m 319.7994,185.8372 22.49723,24.97959 20.18226,-18.70994 v 6.19834 l -20.6742,21.6314 -24.2079,-27.90105 v -6.19834 z"
     sodipodi:nodetypes="cccccccc" /></g></svg>
