<?xml version="1.0" encoding="UTF-8" standalone="no"?>
<!-- Generator: Adobe Illustrator 15.1.0, SVG Export Plug-In . SVG Version: 6.00 Build 0)  -->

<svg
   version="1.1"
   id="Layer_1"
   x="0px"
   y="0px"
   width="350"
   height="260"
   viewBox="0 0 349.99998 259.99999"
   enable-background="new 0 0 595.28 595.28"
   xml:space="preserve"
   sodipodi:docname="enemy.svg"
   inkscape:version="1.1.1 (3bf5ae0d25, 2021-09-20)"
   xmlns:inkscape="http://www.inkscape.org/namespaces/inkscape"
   xmlns:sodipodi="http://sodipodi.sourceforge.net/DTD/sodipodi-0.dtd"
   xmlns="http://www.w3.org/2000/svg"
   xmlns:svg="http://www.w3.org/2000/svg"><defs
   id="defs41" /><sodipodi:namedview
   id="namedview39"
   pagecolor="#ffffff"
   bordercolor="#666666"
   borderopacity="1.0"
   inkscape:pageshadow="2"
   inkscape:pageopacity="0.0"
   inkscape:pagecheckerboard="0"
   showgrid="false"
   inkscape:zoom="1.0818438"
   inkscape:cx="297.64001"
   inkscape:cy="298.10219"
   inkscape:window-width="1920"
   inkscape:window-height="1017"
   inkscape:window-x="1912"
   inkscape:window-y="-8"
   inkscape:window-maximized="1"
   inkscape:current-layer="Layer_1" />
<g
   id="g36"
   transform="matrix(0.97621113,0,0,0.99730344,-115.5005,-165.00717)">
	<path
   fill="#d4effc"
   d="m 389.891,315.306 c 1.744,-8.063 2.998,-17.565 3.719,-28.727 0.469,-7.263 0.713,-15.222 0.713,-23.968 0,-52.643 -43.285,-95.322 -96.682,-95.322 -53.395,0 -96.684,42.679 -96.684,95.322 0,8.747 0.246,16.705 0.715,23.968 0.707,10.97 1.928,20.34 3.625,28.313 11.201,3.114 96.736,25.206 184.594,0.414 z"
   id="path2" />
	<path
   fill="#7cbc00"
   d="m 372.795,319.563 c 0.402,-2.379 0.633,-4.855 0.633,-7.459 0,-31.314 -30.076,-56.929 -68.117,-58.982 0.518,-4.201 1.963,-10.604 5.881,-17.269 0.48,0.048 0.969,0.074 1.465,0.074 8.162,0 14.783,-6.618 14.783,-14.782 0,-8.167 -6.621,-14.785 -14.783,-14.785 -8.168,0 -14.786,6.618 -14.786,14.785 0,2.187 0.486,4.255 1.338,6.122 -5.836,9.519 -8.157,19.312 -8.704,26.257 -35.68,3.901 -63.189,28.631 -63.189,58.581 0,2.779 0.256,5.42 0.713,7.943 30.402,5.747 85.991,12.293 144.766,-0.485 z"
   id="path4" />
	<path
   d="m 332.34,325.605 c 3.424,-5.643 5.395,-12.264 5.395,-19.344 0,-20.637 -16.729,-37.368 -37.361,-37.368 -20.639,0 -37.366,16.73 -37.366,37.368 0,7.044 1.953,13.632 5.342,19.255 18.841,1.592 40.697,2.098 63.99,0.089 z"
   id="path6" />
	<path
   fill="#ed3d2b"
   d="m 393.609,286.579 c -0.721,11.162 -1.975,20.663 -3.719,28.727 -5.715,1.613 -11.42,3.022 -17.096,4.257 -13.754,2.989 -27.33,4.912 -40.455,6.043 -23.293,2.009 -45.149,1.503 -63.991,-0.089 -15.9,-1.345 -29.662,-3.454 -40.32,-5.47 -11.795,-2.231 -19.807,-4.342 -22.732,-5.154 -1.697,-7.974 -2.918,-17.343 -3.625,-28.313 -49.316,11.344 -83.295,31.017 -83.295,53.391 0,23.866 38.67,45.851 93.377,57.505 15.941,3.396 33.24,5.916 51.348,7.348 2.088,0.166 4.184,0.314 6.291,0.449 9.252,0.596 18.691,0.912 28.248,0.912 9.295,0 18.477,-0.299 27.485,-0.861 2.363,-0.148 4.715,-0.314 7.053,-0.5 18.105,-1.432 35.404,-3.951 51.346,-7.346 54.709,-11.654 93.381,-33.641 93.381,-57.507 -10e-4,-22.375 -33.981,-42.048 -83.296,-53.392 z"
   id="path8" />
	<circle
   fill="#f5f5f5"
   cx="300.62601"
   cy="298.194"
   r="12.031"
   id="circle10" />
	<g
   id="g18">
		<path
   fill="#bf081f"
   d="m 239.07,417.584 c 10.176,0 19.066,-5.117 24.031,-12.762 -18.107,-1.432 -35.406,-3.951 -51.348,-7.348 3.112,11.553 14.143,20.11 27.317,20.11 z"
   id="path12" />
		<path
   fill="#bf081f"
   d="m 269.392,405.271 c 2.041,12.854 13.723,22.721 27.869,22.721 14.131,0 25.799,-9.842 27.864,-22.67 -9.008,0.563 -18.189,0.861 -27.485,0.861 -9.557,0.001 -18.996,-0.316 -28.248,-0.912 z"
   id="path14" />
		<path
   fill="#bf081f"
   d="m 332.178,404.822 c 4.967,7.645 13.857,12.762 24.031,12.762 13.172,0 24.203,-8.557 27.314,-20.107 -15.941,3.394 -33.24,5.914 -51.345,7.345 z"
   id="path16" />
	</g>
	<g
   id="g34">
		<g
   id="g32">
			<g
   id="g22">
				<path
   fill="#fcf129"
   d="m 313.434,366.371 c 0,8.723 -7.07,15.793 -15.793,15.793 -8.721,0 -15.795,-7.07 -15.795,-15.793 0,-8.719 7.074,-15.793 15.795,-15.793 8.722,0 15.793,7.074 15.793,15.793 z"
   id="path20" />
			</g>
			<g
   id="g26">
				<path
   fill="#fcf129"
   d="m 232.546,354.924 c 0,8.723 -7.072,15.793 -15.797,15.793 -8.719,0 -15.793,-7.07 -15.793,-15.793 0,-8.723 7.074,-15.795 15.793,-15.795 8.725,0 15.797,7.072 15.797,15.795 z"
   id="path24" />
			</g>
			<g
   id="g30">
				<circle
   fill="#fcf129"
   cx="376.80701"
   cy="354.92401"
   r="15.795"
   id="circle28" />
			</g>
		</g>
	</g>
</g>
</svg>
