<?xml version="1.0" encoding="UTF-8" standalone="no"?>
<!-- Created with Inkscape (http://www.inkscape.org/) -->

<svg
   width="31mm"
   height="42mm"
   viewBox="0 0 31 42"
   version="1.1"
   id="svg5"
   inkscape:version="1.1.1 (3bf5ae0d25, 2021-09-20)"
   sodipodi:docname="hand.svg"
   xmlns:inkscape="http://www.inkscape.org/namespaces/inkscape"
   xmlns:sodipodi="http://sodipodi.sourceforge.net/DTD/sodipodi-0.dtd"
   xmlns="http://www.w3.org/2000/svg"
   xmlns:svg="http://www.w3.org/2000/svg">
  <sodipodi:namedview
     id="namedview7"
     pagecolor="#ffffff"
     bordercolor="#666666"
     borderopacity="1.0"
     inkscape:pageshadow="2"
     inkscape:pageopacity="0.0"
     inkscape:pagecheckerboard="0"
     inkscape:document-units="mm"
     showgrid="false"
     width="209mm"
     inkscape:zoom="2.2948373"
     inkscape:cx="12.637062"
     inkscape:cy="50.330366"
     inkscape:window-width="1920"
     inkscape:window-height="1017"
     inkscape:window-x="1912"
     inkscape:window-y="-8"
     inkscape:window-maximized="1"
     inkscape:current-layer="layer1"
     showguides="true"
     inkscape:guide-bbox="true">
    <sodipodi:guide
       position="21.930467,41.714659"
       orientation="0,-1"
       id="guide13793" />
  </sodipodi:namedview>
  <defs
     id="defs2" />
  <g
     inkscape:label="Layer 1"
     inkscape:groupmode="layer"
     id="layer1">
    <path
       style="fill:#afafaf;stroke-width:0.0425438"
       d="m 30.357197,30.661444 c -0.47777,1.355811 -0.806246,2.126802 -1.442829,3.386577 -0.444968,0.880575 -0.444968,0.880575 -0.452071,2.52952 -0.0098,2.281256 -0.122802,2.752826 -0.90657,3.784112 -1.2383,1.629362 -2.084898,1.872561 -6.45517,1.854356 -3.361257,-0.014 -4.077333,-0.206086 -5.258987,-1.4107 -1.17021,-1.192948 -1.375285,-1.914068 -1.371376,-4.822265 0.001,-0.781961 0.001,-0.781961 -0.941578,-1.74946 C 9.2305927,29.82216 8.4953527,28.459652 7.1415937,22.397478 c -0.385302,-1.725397 -0.538851,-2.336941 -0.759216,-3.02376 -0.50903,-1.586515 -0.02787,-2.6406 1.465759,-3.21108 1.619054,-0.618384 2.3977123,-0.203174 3.8689263,2.063056 0.290779,0.44791 0.290779,0.44791 0.30158,0.256505 0.0059,-0.105272 0.05547,-1.607942 0.110056,-3.339265 0.359885,-11.4138082 0.316772,-10.6180862 0.605233,-11.1705882 0.992973,-1.901891 2.866917,-2.265847 4.294692,-0.834113 0.75933,0.761435 0.720709,0.497916 0.745079,5.083837 0.01855,3.4910092 0.03273,4.0299392 0.106045,4.0302402 0.01691,7e-5 0.15422,-0.04787 0.305144,-0.106529 1.544977,-0.600501 3.116709,-0.06337 3.654267,1.248816 0.115997,0.283151 0.06918,0.279868 0.618496,0.04336 1.915663,-0.824782 3.602867,0.293931 3.879473,2.572314 0.06459,0.532043 0.0635,0.531034 0.370437,0.343324 1.56473,-0.956942 3.779949,0.206824 3.91551,2.057014 0.175257,2.391985 -0.0238,11.56386 -0.265878,12.250831 z m -1.2407,-11.683481 c -0.01588,-0.868584 -0.144282,-1.126441 -0.682219,-1.370055 -0.690402,-0.31266 -1.017036,0.0072 -1.516265,1.484611 -0.449886,1.331422 -0.708787,1.623229 -1.221869,1.377165 -0.350215,-0.167956 -0.576263,-1.235678 -0.832917,-3.934233 -0.147013,-1.545743 -0.537962,-2.017038 -1.525257,-1.838723 -0.747856,0.13507 -0.827808,0.285838 -0.833094,1.570987 -0.0066,1.602058 -0.195091,1.979059 -0.893912,1.7878 -0.512009,-0.140131 -0.530409,-0.193899 -0.932083,-2.7236 -0.237016,-1.492707 -0.309545,-1.711051 -0.617958,-1.860338 -0.478021,-0.231387 -1.133158,-0.124697 -1.583927,0.257944 -0.321687,0.273067 -0.3474,0.364931 -0.544126,1.943996 -0.232504,1.866246 -0.504326,2.271771 -1.26097,1.881213 -0.402289,-0.207651 -0.385854,0.101697 -0.435773,-8.2021842 -0.03077,-5.118376 -0.03687,-5.194555 -0.432193,-5.398288 -0.713664,-0.367792 -1.267153,-0.172063 -1.654801,0.585183 -0.1736,0.339117 -0.242712,1.784483 -0.510366,10.6735202 -0.251111,8.3396 -0.256587,8.452479 -0.421359,8.68653 -0.270291,0.383936 -0.615255,0.453406 -1.006892,0.202773 -0.41382,-0.26483 -0.55066,-0.631801 -0.811608,-2.176535 -0.278475,-1.648494 -0.482097,-2.196756 -1.236891,-3.330394 -0.7909903,-1.188003 -1.1916163,-1.43768 -1.8863723,-1.175619 -0.608585,0.229557 -0.707076,0.684806 -0.378065,1.747513 0.203944,0.65874 0.51245,1.883155 0.777973,3.087653 1.208564,5.48244 1.9303593,6.819168 5.8168503,10.772511 1.433915,1.45858 1.433915,1.45858 1.470603,3.452127 0.04721,2.565036 0.331573,3.246818 1.617149,3.87718 0.920095,0.451154 6.84186,0.477133 7.779678,0.03413 1.318664,-0.622907 1.584343,-1.280228 1.658211,-4.102609 0.05828,-2.226908 0.05828,-2.226908 0.340052,-2.634833 0.455919,-0.660049 0.941874,-1.708983 1.497387,-3.232114 0.224692,-0.616071 0.354739,-6.317556 0.261014,-11.443312 z M 28.43767,4.9143178 c -0.461365,0.635647 -3.607617,3.623063 -3.81397,3.621426 -0.365876,-0.0029 -0.727612,-0.339453 -0.756306,-0.703646 -0.02388,-0.303068 0.159987,-0.518563 2.124442,-2.489902 0.789827,-0.792596 0.789827,-0.792596 -0.521831,-2.129356 -1.78798,-1.822196 -1.920567,-2.088975 -1.274148,-2.56371796 0.465743,-0.342052 0.658919,-0.212996 2.581198,1.72442096 1.965567,1.981046 2.01357,2.054492 1.660615,2.540775 z m -4.691517,0.09518 c -0.321091,0.393649 -3.025269,3.07124 -3.329376,3.296645 -0.398522,0.295383 -0.804826,0.217885 -1.07001,-0.204093 -0.263576,-0.419421 -0.12224,-0.643489 1.346524,-2.134704 0.470557,-0.47775 0.989664,-1.006397 1.153571,-1.174771 0.298013,-0.306133 0.298013,-0.306133 -0.993364,-1.620764 -1.776429,-1.808418 -1.958892,-2.19066496 -1.221406,-2.55876096 0.530657,-0.264862 0.620542,-0.203561 2.553127,1.74119396 2.034931,2.047748 2.043951,2.06309 1.560934,2.655254 z"
       id="path10874" />
    <path
       style="fill:#fdd5ac;fill-opacity:1;stroke-width:1.23252"
       d="m 19.61836,40.624696 c -1.964283,-0.15531 -2.697908,-0.460888 -3.158136,-1.315474 -0.29882,-0.554868 -0.387629,-1.104434 -0.460445,-2.849329 -0.08589,-2.058078 -0.05477,-1.993673 -1.882854,-3.897292 C 10.778684,29.086429 9.9694244,27.620944 8.9396569,23.187124 8.7730323,22.469696 8.4386218,21.101795 8.1965225,20.147345 7.9544234,19.192894 7.7563422,18.311405 7.7563422,18.188482 c 0,-0.435476 0.4857677,-0.83046 1.0213354,-0.83046 0.485761,0 1.7020124,1.562539 2.1264734,2.731916 0.105273,0.290022 0.321422,1.173223 0.480333,1.962668 0.320053,1.589984 0.417386,1.842929 0.798596,2.075366 0.4505,0.274686 0.853656,0.18259 1.075075,-0.245586 0.144824,-0.280059 0.206337,-1.587283 0.450876,-9.581585 0.177836,-5.8136753 0.293985,-8.6742405 0.375714,-9.2531893 0.136879,-0.9696167 0.860145,-1.4726491 1.581241,-1.0997557 0.130962,0.067723 0.283642,0.2052979 0.339289,0.3057221 0.116325,0.2099262 0.208159,3.7481335 0.226917,8.7428089 0.01243,3.308116 0.07134,4.302024 0.266604,4.497284 0.06651,0.06651 0.254464,0.151044 0.417676,0.187853 0.619437,0.139707 0.814897,-0.280911 1.11242,-2.393857 0.08773,-0.623043 0.215809,-1.218729 0.284619,-1.323746 0.304479,-0.464695 1.329767,-0.70853 1.769031,-0.420713 0.253323,0.165984 0.33009,0.436491 0.631437,2.225059 0.359319,2.13264 0.378925,2.182702 0.910922,2.325954 0.363311,0.09783 0.582968,0.01752 0.73652,-0.269293 0.05346,-0.09986 0.125649,-0.705746 0.160412,-1.346413 0.03476,-0.640666 0.08618,-1.237226 0.114254,-1.32569 0.126311,-0.397969 1.241972,-0.592047 1.595881,-0.277617 0.345168,0.306666 0.491137,0.813312 0.653378,2.26783 0.280977,2.519003 0.466661,3.219879 0.900678,3.399654 0.191623,0.07937 0.267409,0.072 0.443125,-0.04314 0.22549,-0.147746 0.402985,-0.503438 0.884816,-1.773121 0.297377,-0.783623 0.616144,-1.205359 0.911065,-1.205359 0.249448,0 0.767496,0.338431 0.905984,0.591863 0.133679,0.244631 0.14371,0.610696 0.135689,4.951898 -0.01033,5.589185 -0.08205,6.856394 -0.44354,7.836815 -0.328168,0.890043 -0.819558,1.934716 -1.231073,2.617211 l -0.330799,0.548629 -0.07427,1.8526 c -0.08878,2.21452 -0.166037,2.776183 -0.463338,3.3684 -0.298346,0.594293 -0.892502,1.011668 -1.687667,1.185529 -0.560487,0.122547 -4.232313,0.228584 -5.217658,0.150677 z"
       id="path12717" />
    <path
       style="fill:#aeaeae;stroke-width:0.0467031"
       d="M 0.1996705,5.2422118 C 0.6105315,5.7776491 4.5566176,8.9041204 4.8094692,8.8945403 5.2348331,8.8784243 5.6419491,8.5171226 5.6606547,8.139143 5.676221,7.8246029 5.4537258,7.6081477 3.0898731,5.6381465 2.1394633,4.8460885 2.1394633,4.8460885 3.610983,3.4154988 5.5935898,1.4880378 5.733656,1.2293243 5.0504762,0.75664498 4.4709139,0.35565626 4.2095066,0.51801426 1.9864973,2.6596506 c -2.10547,2.0284 -2.156007,2.1014431 -1.7868268,2.5825612 z m 5.488496,-0.028899 C 6.0775913,5.6092055 9.3297275,8.2833754 9.6924905,8.5059923 10.167726,8.7976303 10.637153,8.7029037 10.928603,8.2565547 11.218233,7.8129952 11.04485,7.5861436 9.2767714,6.0953223 8.7103208,5.6176983 8.0853618,5.0891346 7.8879736,4.9207363 7.5290861,4.6145576 7.5290861,4.6145576 8.9779108,3.2075982 10.92636,1.3154522 11.135706,0.91952268 10.384818,0.54675828 9.732806,0.22307926 9.5414177,0.34371686 7.3256416,2.4750437 5.1189559,4.5976267 5.1051872,4.6206509 5.6881665,5.2133128 Z"
       id="path13120" />
  </g>
</svg>
