<?xml version="1.0" encoding="UTF-8" standalone="no"?>
<!-- Created with Inkscape (http://www.inkscape.org/) -->

<svg
   width="24mm"
   height="50mm"
   viewBox="0 0 24 50"
   version="1.1"
   id="svg5"
   inkscape:version="1.1.1 (3bf5ae0d25, 2021-09-20)"
   sodipodi:docname="laser.svg"
   xmlns:inkscape="http://www.inkscape.org/namespaces/inkscape"
   xmlns:sodipodi="http://sodipodi.sourceforge.net/DTD/sodipodi-0.dtd"
   xmlns="http://www.w3.org/2000/svg"
   xmlns:svg="http://www.w3.org/2000/svg">
  <sodipodi:namedview
     id="namedview7"
     pagecolor="#ffffff"
     bordercolor="#666666"
     borderopacity="1.0"
     inkscape:pageshadow="2"
     inkscape:pageopacity="0.0"
     inkscape:pagecheckerboard="0"
     inkscape:document-units="mm"
     showgrid="false"
     inkscape:zoom="3.24539"
     inkscape:cx="76.416086"
     inkscape:cy="125.25459"
     inkscape:window-width="1920"
     inkscape:window-height="1017"
     inkscape:window-x="-8"
     inkscape:window-y="-8"
     inkscape:window-maximized="1"
     inkscape:current-layer="layer1" />
  <defs
     id="defs2" />
  <g
     inkscape:label="Layer 1"
     inkscape:groupmode="layer"
     id="layer1">
    <rect
       style="fill:#aa5427;fill-opacity:0.811765;stroke-width:4.16229"
       id="rect946"
       width="12.183701"
       height="38.701725"
       x="5.4112105"
       y="5.7011437"
       ry="0.054898646" />
    <g
       id="g890"
       transform="matrix(1.0378178,0,0,1.0433339,-6.0110102,-6.6323722)">
      <path
         style="fill:#f4d1d1;stroke-width:0.350696"
         d="M 14.237344,53.622578 C 10.578126,52.35674 8.1571324,49.523568 6.6969277,44.798392 5.9123529,42.259533 5.8838644,41.740308 5.8883513,30.06155 l 0.00465,-12.105263 0.9612336,-2.807018 C 8.543222,10.217049 11.374274,7.3784922 15.449014,6.5317063 20.98102,5.3820813 25.871835,8.7255933 28.054595,15.149269 l 0.953823,2.807018 0.0047,12.105263 c 0.0045,11.678758 -0.024,12.197983 -0.808576,14.736842 -1.488996,4.818344 -4.152812,7.838256 -7.895381,8.950828 -2.280757,0.678011 -3.839723,0.645495 -6.071769,-0.126642 z m 6.91874,-2.521144 c 2.54477,-1.299586 4.32821,-4.089028 5.283909,-8.264456 0.669447,-2.924803 0.668607,-22.26792 -0.0011,-25.231568 -1.101008,-4.872309 -3.367448,-7.7633634 -6.889616,-8.788342 -4.370402,-1.2718217 -8.58859,1.271951 -10.3290226,6.228906 -1.159271,3.301738 -1.5078937,7.98409 -1.3091346,17.582995 0.2238883,10.812479 0.7816621,13.510234 3.4137502,16.511111 2.552697,2.910361 6.450301,3.687944 9.83121,1.961354 z m -4.919845,-5.929098 c -0.496836,-0.929305 -0.496836,-28.94139 0,-29.870695 0.472161,-0.883152 1.956782,-0.883152 2.428943,0 0.496837,0.929305 0.496837,28.94139 0,29.870695 -0.205891,0.385109 -0.731233,0.678688 -1.214471,0.678688 -0.483239,0 -1.008581,-0.293579 -1.214472,-0.678688 z m 2.441276,-14.896147 c 0,-11.926678 -0.06386,-13.483096 -0.583705,-14.226042 l -0.583704,-0.834215 -0.6431,0.795014 c -0.598684,0.740106 -0.643099,1.719927 -0.643099,14.186842 0,11.926678 0.06386,13.483095 0.583704,14.226043 l 0.583704,0.834214 0.6431,-0.795014 c 0.598684,-0.740105 0.6431,-1.719927 0.6431,-14.186842 z"
         id="path904" />
      <path
         style="fill:#f1dca2;stroke-width:0.350696"
         d="M 15.846428,46.22889 14.821845,45.203252 V 30.236989 15.270727 l 1.024583,-1.025641 c 1.287941,-1.28927 1.920624,-1.28927 3.208565,0 l 1.024584,1.025641 v 14.966262 14.966263 l -1.024584,1.025638 c -0.563521,0.564106 -1.285448,1.025643 -1.604282,1.025643 -0.318834,0 -1.040762,-0.461537 -1.604283,-1.025643 z m 2.818754,-1.056554 c 0.496837,-0.929305 0.496837,-28.94139 0,-29.870695 -0.472161,-0.883152 -1.956782,-0.883152 -2.428943,0 -0.496836,0.929305 -0.496836,28.94139 0,29.870695 0.205891,0.385109 0.731233,0.678688 1.214472,0.678688 0.483238,0 1.00858,-0.293579 1.214471,-0.678688 z"
         id="path902" />
      <path
         style="fill:#edb2af;stroke-width:0.350696"
         d="M 15.698133,51.851778 C 12.08314,50.925908 9.8855217,48.307862 8.5993126,43.394883 7.9088742,40.757592 7.5851413,25.006807 8.1268671,20.408697 8.9654933,13.290533 11.288797,9.7590034 15.854311,8.6626231 c 3.56708,-0.8566123 7.501777,1.2793618 9.259396,5.0265189 1.597337,3.405445 1.800921,5.276089 1.800921,16.547847 0,10.89108 -0.198501,12.920379 -1.579256,16.144873 -1.709686,3.99265 -5.968111,6.409653 -9.637239,5.469916 z M 21.09394,49.43549 c 2.040456,-1.262438 3.452112,-3.801722 4.083052,-7.344589 0.670689,-3.76607 0.670689,-19.941753 0,-23.707823 -0.96065,-5.394262 -3.738144,-8.4217784 -7.726281,-8.4217784 -3.988137,0 -6.765632,3.0275164 -7.7262813,8.4217784 -0.6670344,3.745548 -0.6707884,19.941507 -0.00549,23.676188 1.2930183,7.258382 6.3086323,10.510807 11.3749983,7.376224 z"
         id="path900" />
      <path
         style="fill:#ebc475;stroke-width:0.350696"
         d="m 15.323964,48.057922 c -1.410251,-1.411705 -1.479938,-2.215414 -1.499547,-17.294618 -0.01042,-8.008771 0.06115,-15.125515 0.159041,-15.814985 0.275999,-1.943999 1.591428,-3.132383 3.467253,-3.132383 1.807124,0 3.142896,1.136198 3.465132,2.947416 0.252385,1.418603 0.252385,29.528672 0,30.947275 -0.321378,1.806397 -1.658615,2.947414 -3.45428,2.947414 -0.983915,0 -1.754101,-0.216224 -2.137599,-0.600119 z m 3.731029,-1.829032 1.024584,-1.025638 V 30.236989 15.270727 l -1.024584,-1.025641 c -1.287941,-1.28927 -1.920624,-1.28927 -3.208565,0 l -1.024583,1.025641 v 14.966262 14.966263 l 1.024583,1.025638 c 0.563521,0.564106 1.285449,1.025643 1.604283,1.025643 0.318834,0 1.040761,-0.461537 1.604282,-1.025643 z"
         id="path898" />
      <path
         style="fill:#e7938e;stroke-width:0.350696"
         d="M 15.482591,50.295097 C 13.443933,49.540276 12.223609,48.480922 11.178522,46.558771 9.6193935,43.691185 9.2380548,40.483641 9.2380548,30.236989 c 0,-10.395957 0.3825925,-13.534547 2.0010192,-16.415314 2.919174,-5.1960726 9.504099,-5.1960726 12.423273,0 1.618427,2.880767 2.001019,6.019357 2.001019,16.415314 0,10.395958 -0.382592,13.534547 -2.001019,16.415315 -1.740528,3.098106 -5.331565,4.697348 -8.179756,3.642793 z m 4.595828,-1.285585 c 3.369639,-1.720839 4.313377,-5.828137 4.313377,-18.772523 0,-10.145548 -0.45701,-13.829399 -2.054071,-16.55739 -2.244227,-3.8334356 -7.529802,-3.8334356 -9.774029,0 -1.591178,2.717942 -2.047701,6.409314 -2.047701,16.55739 0,10.146459 0.456551,13.839494 2.04669,16.555663 1.582399,2.702944 4.740092,3.634347 7.515734,2.21686 z"
         id="path896" />
      <path
         style="fill:#e59e5f;stroke-width:0.350696"
         d="m 14.748326,48.992276 c -0.749667,-0.396294 -1.66723,-1.3184 -2.166743,-2.177477 -1.002114,-1.723459 -1.580232,-3.656421 -0.983084,-3.286982 0.211227,0.130677 0.589128,-0.122088 0.83978,-0.561702 0.349372,-0.612761 0.455731,-3.583498 0.455731,-12.729126 0,-9.145628 -0.106359,-12.116367 -0.455731,-12.729126 -0.250652,-0.439616 -0.628553,-0.692381 -0.83978,-0.561701 -0.597402,0.369596 -0.01885,-1.563825 0.984095,-3.288712 2.209459,-3.7998522 7.526774,-3.7998522 9.736233,0 1.002951,1.724887 1.581497,3.658308 0.984095,3.288712 -0.211227,-0.13068 -0.589127,0.122085 -0.83978,0.561701 -0.659434,1.156574 -0.659434,24.301677 0,25.458252 0.250653,0.439614 0.628553,0.692379 0.83978,0.561702 0.597402,-0.369597 0.01886,1.563824 -0.984095,3.288712 -1.555514,2.67519 -4.840016,3.619147 -7.570501,2.175747 z m 5.112671,-1.264105 c 0.473735,-0.511431 0.948416,-1.419326 1.054846,-2.017544 0.252385,-1.418603 0.252385,-29.528672 0,-30.947275 -0.322236,-1.811218 -1.658008,-2.947416 -3.465132,-2.947416 -1.875825,0 -3.191254,1.188384 -3.467253,3.132383 -0.09789,0.68947 -0.169456,7.806214 -0.159041,15.814985 0.01961,15.079204 0.0893,15.882913 1.499547,17.294618 0.383498,0.383895 1.153684,0.600119 2.137599,0.600119 1.213519,0 1.719862,-0.196228 2.399434,-0.92987 z"
         id="path894" />
      <path
         style="fill:#e17759;stroke-width:0.350696"
         d="m 11.293739,42.837985 c -1.122673,-2.872038 -1.122039,-22.323554 8.06e-4,-25.201992 0.589969,-1.512376 1.160254,-0.676917 1.475551,2.161655 0.340849,3.068623 0.340849,17.81006 0,20.878681 -0.315349,2.839042 -0.88535,3.673618 -1.476372,2.161656 z m 11.169403,0.12813 c -0.349371,-0.612761 -0.45573,-3.583498 -0.45573,-12.729126 0,-9.145628 0.106359,-12.116367 0.45573,-12.729126 1.328068,-2.329282 1.941449,1.692358 1.941449,12.729126 0,11.036768 -0.613381,15.058407 -1.941449,12.729126 z"
         id="path892" />
    </g>
  </g>
</svg>
